<svg width="23" height="23" viewBox="0 0 23 23" fill="none" xmlns="http://www.w3.org/2000/svg">
<path d="M16.0191 0.25H6.94037C5.16642 0.252085 3.46574 0.957785 2.21147 2.21227C0.957201 3.46675 0.251786 5.16755 0.25 6.9415L0.25 16.0202C0.252085 17.7942 0.957785 19.4949 2.21227 20.7492C3.46675 22.0034 5.16755 22.7088 6.9415 22.7106H16.0202C17.7942 22.7085 19.4949 22.0028 20.7492 20.7484C22.0034 19.4939 22.7088 17.7931 22.7106 16.0191V6.94037C22.7085 5.16642 22.0028 3.46574 20.7484 2.21147C19.4939 0.957201 17.7931 0.251786 16.0191 0.25V0.25ZM20.4516 16.0191C20.4516 16.6012 20.337 17.1776 20.1142 17.7154C19.8915 18.2531 19.565 18.7418 19.1534 19.1534C18.7418 19.565 18.2531 19.8915 17.7154 20.1142C17.1776 20.337 16.6012 20.4516 16.0191 20.4516H6.94037C5.765 20.4513 4.63786 19.9842 3.80685 19.153C2.97584 18.3218 2.509 17.1945 2.509 16.0191V6.94037C2.5093 5.765 2.97642 4.63786 3.80765 3.80685C4.63887 2.97584 5.76612 2.509 6.9415 2.509H16.0202C17.1956 2.5093 18.3228 2.97642 19.1538 3.80765C19.9848 4.63887 20.4516 5.76612 20.4516 6.9415V16.0202V16.0191Z" fill="white"/>
<path d="M11.4801 5.67188C9.94046 5.67426 8.46458 6.28701 7.37599 7.37581C6.2874 8.4646 5.67493 9.94061 5.67285 11.4803C5.67464 13.0203 6.28713 14.4967 7.37599 15.5858C8.46485 16.6749 9.94119 17.2877 11.4812 17.2897C13.0215 17.288 14.4981 16.6753 15.5872 15.5862C16.6763 14.4971 17.2889 13.0205 17.2907 11.4803C17.2883 9.94022 16.6753 8.46399 15.586 7.37534C14.4967 6.28669 13.0201 5.67449 11.4801 5.673V5.67188ZM11.4801 15.0308C10.5387 15.0308 9.63595 14.6568 8.97031 13.9912C8.30468 13.3255 7.93073 12.4227 7.93073 11.4814C7.93073 10.54 8.30468 9.63722 8.97031 8.97159C9.63595 8.30595 10.5387 7.932 11.4801 7.932C12.4215 7.932 13.3243 8.30595 13.9899 8.97159C14.6555 9.63722 15.0295 10.54 15.0295 11.4814C15.0295 12.4227 14.6555 13.3255 13.9899 13.9912C13.3243 14.6568 12.4215 15.0308 11.4801 15.0308Z" fill="white"/>
<path d="M17.3008 7.10747C18.0694 7.10747 18.6924 6.48442 18.6924 5.71584C18.6924 4.94727 18.0694 4.32422 17.3008 4.32422C16.5322 4.32422 15.9092 4.94727 15.9092 5.71584C15.9092 6.48442 16.5322 7.10747 17.3008 7.10747Z" fill="white"/>
</svg>
