<svg width="61" height="61" viewBox="0 0 61 61" fill="none" xmlns="http://www.w3.org/2000/svg">
<g filter="url(#filter0_d_3293_1362)">
<path d="M35.5165 18.1479C35.47 16.7058 34.6527 15.8277 33.2116 15.7668C32.243 15.7275 31.2745 15.7051 30.3024 15.7051C29.153 15.7051 28.001 15.7337 26.8516 15.7776C25.6119 15.8241 24.7704 16.645 24.7123 17.8838C24.6183 20.0017 24.586 22.1259 24.6872 24.2438C24.7633 25.7941 25.6844 26.5451 27.2526 26.6069C27.668 26.6248 28.7923 26.6284 29.9407 26.6284C31.3792 26.6284 32.8642 26.6212 33.0558 26.6069C34.5516 26.5022 35.47 25.6634 35.5201 24.1677C35.5854 22.1626 35.5819 20.153 35.5165 18.1479ZM30.0929 24.609C28.2069 24.609 26.6744 23.0881 26.6529 21.194C26.6278 19.2937 28.163 17.7397 30.0714 17.729H30.0929C31.9897 17.729 33.5329 19.2614 33.5365 21.1547C33.5401 23.0514 31.9897 24.609 30.0929 24.609ZM33.6699 18.3788H33.652C33.2116 18.3681 32.8535 17.9957 32.8678 17.5625C32.8821 17.1328 33.2438 16.7891 33.6734 16.7891H33.6913C34.1282 16.7998 34.4934 17.1758 34.4791 17.6019C34.4647 18.0351 34.1031 18.3788 33.6699 18.3788Z" fill="black"/>
<path d="M30.097 10.0723C23.9689 10.0723 19 15.0412 19 21.1692C19 27.2973 23.9689 32.2662 30.097 32.2662C36.2251 32.2662 41.1939 27.2973 41.1939 21.1692C41.1939 15.0412 36.2251 10.0723 30.097 10.0723ZM36.9626 24.2154C36.8937 26.4192 35.4338 27.8899 33.1574 28.0492C32.7743 28.0743 29.9708 28.0743 29.9412 28.0743C29.1428 28.0743 27.7258 28.0743 27.1949 28.0528C24.8282 27.9588 23.3503 26.5606 23.2456 24.3129C23.1516 22.3616 23.1588 20.2983 23.2707 17.8196C23.3575 15.8432 24.8067 14.4083 26.7939 14.3331C28.0409 14.2866 29.1857 14.2606 30.3029 14.2606C31.3251 14.2606 32.3232 14.2821 33.2729 14.3224C35.4409 14.4163 36.8901 15.8978 36.9626 18.1016C37.028 20.1291 37.0316 22.1852 36.9626 24.2154Z" fill="black"/>
<path d="M32.3291 21.19C32.3147 22.4181 31.3104 23.4054 30.0742 23.3974C28.8452 23.3902 27.8444 22.3823 27.8516 21.1569C27.8552 19.9323 28.8595 18.9271 30.0885 18.9199C31.3283 18.9164 32.3398 19.9422 32.3291 21.1891V21.19Z" fill="black"/>
</g>
<defs>
<filter id="filter0_d_3293_1362" x="0" y="0.0722656" width="60.1938" height="60.1938" filterUnits="userSpaceOnUse" color-interpolation-filters="sRGB">
<feFlood flood-opacity="0" result="BackgroundImageFix"/>
<feColorMatrix in="SourceAlpha" type="matrix" values="0 0 0 0 0 0 0 0 0 0 0 0 0 0 0 0 0 0 127 0" result="hardAlpha"/>
<feOffset dy="9"/>
<feGaussianBlur stdDeviation="9.5"/>
<feComposite in2="hardAlpha" operator="out"/>
<feColorMatrix type="matrix" values="0 0 0 0 0 0 0 0 0 0 0 0 0 0 0 0 0 0 0.1 0"/>
<feBlend mode="normal" in2="BackgroundImageFix" result="effect1_dropShadow_3293_1362"/>
<feBlend mode="normal" in="SourceGraphic" in2="effect1_dropShadow_3293_1362" result="shape"/>
</filter>
</defs>
</svg>
