<svg width="23" height="22" viewBox="0 0 23 22" fill="none" xmlns="http://www.w3.org/2000/svg">
<path d="M22.7039 13.4339V21.7353H17.8911V13.9897C17.8911 12.0434 17.1947 10.7159 15.4532 10.7159C14.1235 10.7159 13.3315 11.6114 12.9839 12.4765C12.8568 12.7859 12.8241 13.2168 12.8241 13.6499V21.7353H8.00912C8.00912 21.7353 8.07437 8.6178 8.00912 7.25767H12.8241V9.30967L12.7926 9.35692H12.8241V9.30967C13.4631 8.3253 14.605 6.91792 17.1621 6.91792C20.329 6.91792 22.7039 8.98792 22.7039 13.4339ZM2.97362 0.279297C1.32775 0.279297 0.25 1.3593 0.25 2.78017C0.25 4.16955 1.29625 5.28217 2.91062 5.28217H2.94212C4.62175 5.28217 5.66463 4.16955 5.66463 2.78017C5.63538 1.3593 4.62287 0.279297 2.97475 0.279297H2.97362ZM0.53575 21.7353H5.3485V7.25767H0.53575V21.7353Z" fill="white"/>
</svg>
