<svg width="23" height="19" viewBox="0 0 23 19" fill="none" xmlns="http://www.w3.org/2000/svg">
<path d="M22.75 2.64513C21.9067 3.01343 21.0135 3.25492 20.0995 3.36176C21.0589 2.79839 21.7803 1.905 22.129 0.848507C21.22 1.37763 20.2286 1.75031 19.1961 1.95101C18.7614 1.49561 18.2384 1.13357 17.6591 0.886958C17.0798 0.640348 16.4563 0.514343 15.8267 0.516632C13.2775 0.516632 11.2109 2.55288 11.2109 5.06163C11.2109 5.41713 11.2514 5.76476 11.3301 6.09663C9.50152 6.00966 7.71113 5.54247 6.07319 4.72485C4.43525 3.90724 2.98573 2.75716 1.81712 1.34801C1.40743 2.03921 1.19209 2.82826 1.19387 3.63176C1.19466 4.38322 1.38268 5.12264 1.74095 5.7832C2.09922 6.44376 2.61644 7.00463 3.24588 7.41513C2.51404 7.39151 1.79802 7.19612 1.15562 6.84476V6.90101C1.15562 9.10376 2.7475 10.9409 4.85687 11.3594C4.46044 11.4646 4.05203 11.5179 3.64188 11.518C3.34375 11.518 3.05463 11.4899 2.77225 11.4336C3.07384 12.3425 3.65099 13.135 4.42355 13.7009C5.1961 14.2668 6.1257 14.5781 7.08325 14.5915C5.44083 15.8566 3.42455 16.5401 1.35137 16.5344C0.977875 16.5344 0.611125 16.5119 0.25 16.4714C2.36641 17.8109 4.82042 18.5203 7.32513 18.5166C15.8155 18.5166 20.4573 11.59 20.4573 5.58363L20.4415 4.99526C21.347 4.35814 22.1292 3.56183 22.75 2.64513Z" fill="white"/>
</svg>
