<svg width="23" height="17" viewBox="0 0 23 17" fill="none" xmlns="http://www.w3.org/2000/svg">
<path d="M18.0385 0.643703H4.91313C2.33687 0.643703 0.25 2.70808 0.25 5.25508V11.7441C0.25 14.2911 2.338 16.3566 4.91313 16.3566H18.0385C20.6147 16.3566 22.7016 14.2911 22.7016 11.7441V5.25508C22.7016 2.70808 20.6136 0.642578 18.0385 0.642578V0.643703ZM14.8851 8.81458L8.746 11.7115C8.70856 11.7295 8.66716 11.7377 8.62566 11.7355C8.58416 11.7332 8.54392 11.7205 8.50866 11.6985C8.47341 11.6765 8.44429 11.6459 8.42403 11.6096C8.40376 11.5733 8.393 11.5325 8.39275 11.491V5.51833C8.3935 5.47656 8.40481 5.43566 8.42563 5.39944C8.44644 5.36322 8.47609 5.33286 8.5118 5.31119C8.54751 5.28952 8.58813 5.27723 8.62986 5.27549C8.6716 5.27374 8.7131 5.28259 8.7505 5.3012L14.8907 8.37808C14.9316 8.39848 14.966 8.42999 14.9898 8.46901C15.0136 8.50802 15.0259 8.55296 15.0253 8.59866C15.0247 8.64435 15.0112 8.68896 14.9864 8.72735C14.9616 8.76574 14.9265 8.79636 14.8851 8.8157V8.81458Z" fill="white"/>
</svg>
