<svg width="30" height="30" viewBox="0 0 30 30" fill="none" xmlns="http://www.w3.org/2000/svg">
<path d="M20.0212 2.5H9.93375C7.96269 2.50232 6.07304 3.28643 4.67941 4.6803C3.28578 6.07416 2.50198 7.96394 2.5 9.935L2.5 20.0225C2.50232 21.9936 3.28643 23.8832 4.6803 25.2768C6.07416 26.6705 7.96394 27.4543 9.935 27.4562H20.0225C21.9936 27.4539 23.8832 26.6698 25.2768 25.276C26.6705 23.8821 27.4543 21.9923 27.4562 20.0212V9.93375C27.4539 7.96269 26.6698 6.07304 25.276 4.67941C23.8821 3.28578 21.9923 2.50198 20.0212 2.5V2.5ZM24.9463 20.0212C24.9463 20.668 24.8189 21.3084 24.5714 21.906C24.3239 22.5035 23.9611 23.0464 23.5038 23.5038C23.0464 23.9611 22.5035 24.3239 21.906 24.5714C21.3084 24.8189 20.668 24.9463 20.0212 24.9463H9.93375C8.62778 24.9459 7.3754 24.4269 6.45206 23.5033C5.52871 22.5797 5.01 21.3272 5.01 20.0212V9.93375C5.01033 8.62778 5.52936 7.3754 6.45294 6.45206C7.37652 5.52871 8.62903 5.01 9.935 5.01H20.0225C21.3285 5.01033 22.5808 5.52936 23.5042 6.45294C24.4275 7.37652 24.9463 8.62903 24.9463 9.935V20.0225V20.0212Z" fill="black"/>
<path d="M14.9775 8.52393C13.2668 8.52657 11.6269 9.20741 10.4174 10.4172C9.20786 11.627 8.52734 13.267 8.52502 14.9777C8.52701 16.6888 9.20755 18.3293 10.4174 19.5394C11.6272 20.7495 13.2676 21.4304 14.9788 21.4327C16.6901 21.4307 18.3308 20.75 19.541 19.5399C20.7511 18.3297 21.4318 16.689 21.4338 14.9777C21.4311 13.2665 20.7499 11.6263 19.5396 10.4167C18.3293 9.20706 16.6887 8.52683 14.9775 8.52518V8.52393ZM14.9775 18.9227C13.9316 18.9227 12.9285 18.5072 12.1889 17.7676C11.4493 17.028 11.0338 16.0249 11.0338 14.9789C11.0338 13.933 11.4493 12.9299 12.1889 12.1903C12.9285 11.4507 13.9316 11.0352 14.9775 11.0352C16.0235 11.0352 17.0266 11.4507 17.7662 12.1903C18.5058 12.9299 18.9213 13.933 18.9213 14.9789C18.9213 16.0249 18.5058 17.028 17.7662 17.7676C17.0266 18.5072 16.0235 18.9227 14.9775 18.9227Z" fill="black"/>
<path d="M21.445 10.1189C22.299 10.1189 22.9912 9.42659 22.9912 8.57262C22.9912 7.71865 22.299 7.02637 21.445 7.02637C20.591 7.02637 19.8987 7.71865 19.8987 8.57262C19.8987 9.42659 20.591 10.1189 21.445 10.1189Z" fill="black"/>
</svg>
