<svg width="30" height="30" viewBox="0 0 30 30" fill="none" xmlns="http://www.w3.org/2000/svg">
<path d="M27.4487 17.149V26.3727H22.1012V17.7665C22.1012 15.604 21.3275 14.129 19.3925 14.129C17.915 14.129 17.035 15.124 16.6488 16.0852C16.5075 16.429 16.4713 16.9077 16.4713 17.389V26.3727H11.1213C11.1213 26.3727 11.1937 11.7977 11.1213 10.2865H16.4713V12.5665L16.4363 12.619H16.4713V12.5665C17.1812 11.4727 18.45 9.90897 21.2913 9.90897C24.81 9.90897 27.4487 12.209 27.4487 17.149ZM5.52625 2.53271C3.6975 2.53271 2.5 3.73272 2.5 5.31147C2.5 6.85522 3.6625 8.09147 5.45625 8.09147H5.49125C7.3575 8.09147 8.51625 6.85522 8.51625 5.31147C8.48375 3.73272 7.35875 2.53271 5.5275 2.53271H5.52625ZM2.8175 26.3727H8.165V10.2865H2.8175V26.3727Z" fill="black"/>
</svg>
