<svg width="16" height="64" viewBox="0 0 16 64" fill="none" xmlns="http://www.w3.org/2000/svg">
<mask id="path-1-outside-1_1369_1763" maskUnits="userSpaceOnUse" x="0" y="0" width="16" height="64" fill="black">
<rect fill="white" width="16" height="64"/>
<path d="M0.669999 48.26H15V49.96H4.47C4.33 49.96 4.18 49.9567 4.02 49.95C3.86 49.9367 3.69667 49.9233 3.53 49.91L12.49 54.83C12.79 54.9833 12.94 55.2167 12.94 55.53V55.81C12.94 56.1233 12.79 56.3567 12.49 56.51L3.49 61.53C3.84333 61.49 4.17 61.47 4.47 61.47H15V63.17H0.669999V61.74C0.669999 61.5667 0.686666 61.4333 0.719999 61.34C0.753332 61.2467 0.846666 61.1567 0.999999 61.07L9.82 56.12C9.98 56.04 10.1467 55.9633 10.32 55.89C10.4933 55.81 10.67 55.7367 10.85 55.67C10.67 55.6033 10.4933 55.5333 10.32 55.46C10.14 55.3867 9.97 55.3067 9.81 55.22L0.999999 50.36C0.846666 50.28 0.753332 50.1933 0.719999 50.1C0.686666 50 0.669999 49.8633 0.669999 49.69V48.26ZM13.42 33.7558L15 33.7658L15 42.5958H0.669999L0.669999 33.7658H2.25L2.25 40.6558H7.01V35.0758H8.53V40.6558H13.42L13.42 33.7558ZM0.669999 17.4428H15V18.4128C15 18.5661 14.9733 18.6961 14.92 18.8028C14.8667 18.9028 14.7767 19.0028 14.65 19.1028L3.85 27.3928C4.01667 27.3795 4.18 27.3695 4.34 27.3628C4.5 27.3561 4.65 27.3528 4.79 27.3528H15V29.0528H0.669999V28.0528C0.669999 27.9661 0.676666 27.8928 0.689999 27.8328C0.696666 27.7728 0.713332 27.7195 0.739999 27.6728C0.759999 27.6261 0.793333 27.5795 0.84 27.5328C0.879999 27.4861 0.933332 27.4361 0.999999 27.3828L11.79 19.0928C11.6167 19.1061 11.45 19.1195 11.29 19.1328C11.1233 19.1395 10.9667 19.1428 10.82 19.1428H0.669999V17.4428ZM13.46 6.24937C13.46 5.65604 13.36 5.12604 13.16 4.65937C12.96 4.19271 12.68 3.79937 12.32 3.47937C11.96 3.15271 11.53 2.90604 11.03 2.73937C10.53 2.56604 9.98 2.47937 9.38 2.47937H0.669999V0.549374H9.38C10.2067 0.549374 10.9733 0.682707 11.68 0.949375C12.3867 1.20937 13 1.58604 13.52 2.07938C14.0333 2.56604 14.4367 3.16271 14.73 3.86937C15.0233 4.57604 15.17 5.36937 15.17 6.24937C15.17 7.12937 15.0233 7.92271 14.73 8.62937C14.4367 9.33604 14.0333 9.93604 13.52 10.4294C13 10.9227 12.3867 11.3027 11.68 11.5694C10.9733 11.8294 10.2067 11.9594 9.38 11.9594H0.669999L0.669999 10.0294H9.37C9.97 10.0294 10.52 9.94604 11.02 9.77937C11.52 9.60604 11.95 9.35937 12.31 9.03937C12.67 8.71271 12.9533 8.31604 13.16 7.84937C13.36 7.37604 13.46 6.84271 13.46 6.24937Z"/>
</mask>
<path d="M0.669999 48.26V48.06H0.469999V48.26H0.669999ZM15 48.26H15.2V48.06H15V48.26ZM15 49.96V50.16H15.2V49.96H15ZM4.02 49.95L4.00338 50.1495L4.01167 50.1498L4.02 49.95ZM3.53 49.91L3.54595 49.7106L3.43374 50.0853L3.53 49.91ZM12.49 54.83L12.3937 55.0054L12.399 55.0081L12.49 54.83ZM12.49 56.51L12.3989 56.3318L12.3926 56.3353L12.49 56.51ZM3.49 61.53L3.39257 61.3553L3.5125 61.7287L3.49 61.53ZM15 61.47H15.2V61.27H15V61.47ZM15 63.17V63.37H15.2V63.17H15ZM0.669999 63.17H0.469999V63.37H0.669999V63.17ZM0.999999 61.07L0.902115 60.8956L0.901587 60.8959L0.999999 61.07ZM9.82 56.12L9.73046 55.9409L9.72212 55.9456L9.82 56.12ZM10.32 55.89L10.398 56.0743L10.4038 56.0716L10.32 55.89ZM10.85 55.67L10.9195 55.8575L11.4258 55.67L10.9195 55.4824L10.85 55.67ZM10.32 55.46L10.3979 55.2758L10.3955 55.2748L10.32 55.46ZM9.81 55.22L9.71339 55.3951L9.71474 55.3959L9.81 55.22ZM0.999999 50.36L1.09663 50.1848L1.09251 50.1827L0.999999 50.36ZM0.719999 50.1L0.53022 50.1633L0.531651 50.1673L0.719999 50.1ZM0.669999 48.26V48.46H15V48.26V48.06H0.669999V48.26ZM15 48.26H14.8V49.96H15H15.2V48.26H15ZM15 49.96V49.76H4.47V49.96V50.16H15V49.96ZM4.47 49.96V49.76C4.33314 49.76 4.18594 49.7567 4.02833 49.7502L4.02 49.95L4.01167 50.1498C4.17406 50.1566 4.32686 50.16 4.47 50.16V49.96ZM4.02 49.95L4.03661 49.7507C3.87638 49.7373 3.71283 49.724 3.54595 49.7106L3.53 49.91L3.51405 50.1094C3.68051 50.1227 3.84362 50.136 4.00339 50.1493L4.02 49.95ZM3.53 49.91L3.43374 50.0853L12.3937 55.0053L12.49 54.83L12.5863 54.6547L3.62626 49.7347L3.53 49.91ZM12.49 54.83L12.399 55.0081C12.5243 55.0721 12.6071 55.147 12.6593 55.2282C12.7109 55.3085 12.74 55.4066 12.74 55.53H12.94H13.14C13.14 55.3401 13.0941 55.1648 12.9957 55.0118C12.8979 54.8597 12.7557 54.7412 12.581 54.6519L12.49 54.83ZM12.94 55.53H12.74V55.81H12.94H13.14V55.53H12.94ZM12.94 55.81H12.74C12.74 55.9334 12.7109 56.0315 12.6593 56.1118C12.6071 56.193 12.5243 56.2679 12.399 56.3319L12.49 56.51L12.581 56.6881C12.7557 56.5988 12.8979 56.4803 12.9957 56.3282C13.0941 56.1752 13.14 55.9999 13.14 55.81H12.94ZM12.49 56.51L12.3926 56.3353L3.39257 61.3553L3.49 61.53L3.58743 61.7047L12.5874 56.6847L12.49 56.51ZM3.49 61.53L3.5125 61.7287C3.85968 61.6894 4.17874 61.67 4.47 61.67V61.47V61.27C4.16126 61.27 3.82698 61.2906 3.4675 61.3313L3.49 61.53ZM4.47 61.47V61.67H15V61.47V61.27H4.47V61.47ZM15 61.47H14.8V63.17H15H15.2V61.47H15ZM15 63.17V62.97H0.669999V63.17V63.37H15V63.17ZM0.669999 63.17H0.869999V61.74H0.669999H0.469999V63.17H0.669999ZM0.669999 61.74H0.869999C0.869999 61.5751 0.886431 61.4686 0.908348 61.4073L0.719999 61.34L0.531651 61.2727C0.4869 61.398 0.469999 61.5582 0.469999 61.74H0.669999ZM0.719999 61.34L0.908348 61.4073C0.916974 61.3831 0.957644 61.3237 1.09841 61.2441L0.999999 61.07L0.901587 60.8959C0.735688 60.9897 0.589691 61.1102 0.531651 61.2727L0.719999 61.34ZM0.999999 61.07L1.09788 61.2444L9.91788 56.2944L9.82 56.12L9.72212 55.9456L0.902116 60.8956L0.999999 61.07ZM9.82 56.12L9.90944 56.2989C10.0655 56.2209 10.2283 56.146 10.3979 56.0742L10.32 55.89L10.2421 55.7058C10.065 55.7807 9.89453 55.8591 9.73056 55.9411L9.82 56.12ZM10.32 55.89L10.4038 56.0716C10.5724 55.9938 10.7443 55.9224 10.9195 55.8575L10.85 55.67L10.7805 55.4824C10.5957 55.5509 10.4143 55.6262 10.2362 55.7084L10.32 55.89ZM10.85 55.67L10.9195 55.4824C10.7423 55.4168 10.5684 55.3479 10.3979 55.2758L10.32 55.46L10.2421 55.6442C10.4183 55.7187 10.5977 55.7898 10.7805 55.8575L10.85 55.67ZM10.32 55.46L10.3955 55.2748C10.2218 55.204 10.0584 55.1271 9.90526 55.0441L9.81 55.22L9.71474 55.3959C9.88158 55.4862 10.0582 55.5693 10.2445 55.6452L10.32 55.46ZM9.81 55.22L9.9066 55.0449L1.0966 50.1849L0.999999 50.36L0.903394 50.5351L9.71339 55.3951L9.81 55.22ZM0.999999 50.36L1.09251 50.1827C0.953357 50.1101 0.915928 50.054 0.908348 50.0327L0.719999 50.1L0.531651 50.1673C0.590737 50.3327 0.739974 50.4499 0.907486 50.5373L0.999999 50.36ZM0.719999 50.1L0.909736 50.0368C0.886165 49.966 0.869999 49.8538 0.869999 49.69H0.669999H0.469999C0.469999 49.8729 0.487167 50.034 0.530262 50.1632L0.719999 50.1ZM0.669999 49.69H0.869999V48.26H0.669999H0.469999V49.69H0.669999ZM13.42 33.7558L13.4213 33.5558L13.22 33.5545V33.7558H13.42ZM15 33.7658H15.2V33.567L15.0013 33.5658L15 33.7658ZM15 42.5958V42.7958H15.2V42.5958H15ZM0.669999 42.5958H0.469999V42.7958H0.669999V42.5958ZM0.669999 33.7658V33.5658H0.469999V33.7658H0.669999ZM2.25 33.7658H2.45V33.5658H2.25V33.7658ZM2.25 40.6558H2.05V40.8558H2.25V40.6558ZM7.01 40.6558V40.8558H7.21V40.6558H7.01ZM7.01 35.0758V34.8758H6.81V35.0758H7.01ZM8.53 35.0758H8.73V34.8758H8.53V35.0758ZM8.53 40.6558H8.33V40.8558H8.53V40.6558ZM13.42 40.6558V40.8558H13.62V40.6558H13.42ZM13.42 33.7558L13.4187 33.9558L14.9987 33.9658L15 33.7658L15.0013 33.5658L13.4213 33.5558L13.42 33.7558ZM15 33.7658H14.8L14.8 42.5958H15H15.2L15.2 33.7658H15ZM15 42.5958V42.3958H0.669999V42.5958V42.7958H15V42.5958ZM0.669999 42.5958H0.869999L0.869999 33.7658H0.669999H0.469999L0.469999 42.5958H0.669999ZM0.669999 33.7658V33.9658H2.25V33.7658V33.5658H0.669999V33.7658ZM2.25 33.7658H2.05L2.05 40.6558H2.25H2.45L2.45 33.7658H2.25ZM2.25 40.6558V40.8558H7.01V40.6558V40.4558H2.25V40.6558ZM7.01 40.6558H7.21V35.0758H7.01H6.81V40.6558H7.01ZM7.01 35.0758V35.2758H8.53V35.0758V34.8758H7.01V35.0758ZM8.53 35.0758H8.33V40.6558H8.53H8.73V35.0758H8.53ZM8.53 40.6558V40.8558H13.42V40.6558L13.42 40.4558H8.53V40.6558ZM13.42 40.6558H13.62L13.62 33.7558H13.42H13.22L13.22 40.6558H13.42ZM0.669999 17.4428V17.2428H0.469999V17.4428H0.669999ZM15 17.4428H15.2V17.2428H15V17.4428ZM14.92 18.8028L15.0965 18.897L15.0989 18.8923L14.92 18.8028ZM14.65 19.1028L14.7718 19.2615L14.7739 19.2598L14.65 19.1028ZM3.85 27.3928L3.72822 27.2342L3.19152 27.6461L3.86595 27.5922L3.85 27.3928ZM4.34 27.3628L4.33167 27.163L4.34 27.3628ZM15 27.3528H15.2V27.1528H15V27.3528ZM15 29.0528V29.2528H15.2V29.0528H15ZM0.669999 29.0528H0.469999V29.2528H0.669999V29.0528ZM0.689999 27.8328L0.885236 27.8762L0.887581 27.8656L0.888775 27.8549L0.689999 27.8328ZM0.739999 27.6728L0.913648 27.772L0.919322 27.7621L0.923828 27.7516L0.739999 27.6728ZM0.84 27.5328L0.981421 27.6742L0.986853 27.6688L0.991852 27.663L0.84 27.5328ZM0.999999 27.3828L0.878126 27.2242L0.87506 27.2266L0.999999 27.3828ZM11.79 19.0928L11.9118 19.2514L12.4449 18.8418L11.7747 18.8934L11.79 19.0928ZM11.29 19.1328L11.298 19.3328L11.3066 19.3321L11.29 19.1328ZM0.669999 19.1428H0.469999V19.3428H0.669999V19.1428ZM0.669999 17.4428V17.6428H15V17.4428V17.2428H0.669999V17.4428ZM15 17.4428H14.8V18.4128H15H15.2V17.4428H15ZM15 18.4128H14.8C14.8 18.5437 14.7772 18.6413 14.7411 18.7134L14.92 18.8028L15.0989 18.8923C15.1695 18.751 15.2 18.5886 15.2 18.4128H15ZM14.92 18.8028L14.7435 18.7087C14.7075 18.7763 14.6396 18.8562 14.5261 18.9458L14.65 19.1028L14.7739 19.2598C14.9138 19.1494 15.0259 19.0293 15.0965 18.8969L14.92 18.8028ZM14.65 19.1028L14.5282 18.9442L3.72822 27.2342L3.85 27.3928L3.97178 27.5515L14.7718 19.2615L14.65 19.1028ZM3.85 27.3928L3.86595 27.5922C4.03019 27.579 4.19098 27.5692 4.34832 27.5626L4.34 27.3628L4.33167 27.163C4.16902 27.1698 4.00314 27.1799 3.83405 27.1935L3.85 27.3928ZM4.34 27.3628L4.34832 27.5626C4.50594 27.5561 4.65314 27.5528 4.79 27.5528V27.3528V27.1528C4.64686 27.1528 4.49406 27.1562 4.33167 27.163L4.34 27.3628ZM4.79 27.3528V27.5528H15V27.3528V27.1528H4.79V27.3528ZM15 27.3528H14.8V29.0528H15H15.2V27.3528H15ZM15 29.0528V28.8528H0.669999V29.0528V29.2528H15V29.0528ZM0.669999 29.0528H0.869999V28.0528H0.669999H0.469999V29.0528H0.669999ZM0.669999 28.0528H0.869999C0.869999 27.9753 0.876063 27.9175 0.885236 27.8762L0.689999 27.8328L0.494761 27.7894C0.477268 27.8681 0.469999 27.957 0.469999 28.0528H0.669999ZM0.689999 27.8328L0.888775 27.8549C0.892797 27.8187 0.902116 27.7922 0.913648 27.772L0.739999 27.6728L0.56635 27.5736C0.524549 27.6467 0.500535 27.7269 0.491222 27.8107L0.689999 27.8328ZM0.739999 27.6728L0.923828 27.7516C0.931294 27.7342 0.94761 27.708 0.981421 27.6742L0.84 27.5328L0.698579 27.3914C0.639055 27.4509 0.588704 27.5181 0.55617 27.594L0.739999 27.6728ZM0.84 27.5328L0.991852 27.663C1.02126 27.6287 1.06457 27.5873 1.12494 27.539L0.999999 27.3828L0.87506 27.2266C0.80209 27.285 0.738736 27.3436 0.688148 27.4027L0.84 27.5328ZM0.999999 27.3828L1.12185 27.5414L11.9118 19.2514L11.79 19.0928L11.6681 18.9342L0.878149 27.2242L0.999999 27.3828ZM11.79 19.0928L11.7747 18.8934C11.6009 18.9068 11.4338 18.9201 11.2734 18.9335L11.29 19.1328L11.3066 19.3321C11.4662 19.3188 11.6324 19.3055 11.8053 19.2922L11.79 19.0928ZM11.29 19.1328L11.282 18.933C11.1176 18.9395 10.9637 18.9428 10.82 18.9428V19.1428V19.3428C10.9697 19.3428 11.129 19.3394 11.298 19.3327L11.29 19.1328ZM10.82 19.1428V18.9428H0.669999V19.1428V19.3428H10.82V19.1428ZM0.669999 19.1428H0.869999V17.4428H0.669999H0.469999V19.1428H0.669999ZM12.32 3.47937L12.1856 3.62749L12.1871 3.62886L12.32 3.47937ZM11.03 2.73938L10.9645 2.92836L10.9668 2.92911L11.03 2.73938ZM0.669999 2.47937H0.469999V2.67937H0.669999V2.47937ZM0.669999 0.549377V0.349373H0.469999V0.549377H0.669999ZM11.68 0.949371L11.6094 1.1365L11.6109 1.13707L11.68 0.949371ZM13.52 2.07938L13.3823 2.22447L13.3824 2.22452L13.52 2.07938ZM13.52 10.4294L13.6577 10.5745L13.6586 10.5736L13.52 10.4294ZM11.68 11.5694L11.7491 11.7571L11.7506 11.7565L11.68 11.5694ZM0.669999 11.9594H0.469999V12.1594H0.669999V11.9594ZM0.669999 10.0294V9.82938H0.469999V10.0294H0.669999ZM11.02 9.77937L11.0833 9.96912L11.0855 9.96834L11.02 9.77937ZM12.31 9.03938L12.4429 9.18887L12.4444 9.18749L12.31 9.03938ZM13.16 7.84937L13.3429 7.93037L13.3442 7.92722L13.16 7.84937ZM13.46 6.24937H13.66C13.66 5.63347 13.5561 5.07599 13.3438 4.58059L13.16 4.65937L12.9762 4.73816C13.1639 5.17609 13.26 5.67861 13.26 6.24937H13.46ZM13.16 4.65937L13.3438 4.58059C13.1329 4.08839 12.836 3.67048 12.4529 3.32989L12.32 3.47937L12.1871 3.62886C12.524 3.92827 12.7871 4.29702 12.9762 4.73816L13.16 4.65937ZM12.32 3.47937L12.4544 3.33126C12.0721 2.98441 11.6174 2.72434 11.0932 2.54964L11.03 2.73938L10.9668 2.92911C11.4426 3.08774 11.8479 3.32101 12.1856 3.62749L12.32 3.47937ZM11.03 2.73938L11.0955 2.55041C10.5718 2.36887 9.99935 2.27937 9.38 2.27937V2.47937V2.67937C9.96065 2.67937 10.4882 2.76322 10.9645 2.92834L11.03 2.73938ZM9.38 2.47937V2.27937H0.669999V2.47937V2.67937H9.38V2.47937ZM0.669999 2.47937H0.869999V0.549377H0.669999H0.469999V2.47937H0.669999ZM0.669999 0.549377V0.749374H9.38V0.549377V0.349373H0.669999V0.549377ZM9.38 0.549377V0.749374C10.1848 0.749374 10.9273 0.879112 11.6094 1.13649L11.68 0.949371L11.7506 0.762253C11.0193 0.486298 10.2285 0.349373 9.38 0.349373V0.549377ZM11.68 0.949371L11.6109 1.13707C12.2934 1.38816 12.8831 1.75079 13.3823 2.22447L13.52 2.07938L13.6577 1.93428C13.1169 1.42129 12.4799 1.03058 11.7491 0.761673L11.68 0.949371ZM13.52 2.07938L13.3824 2.22452C13.8738 2.69038 14.2618 3.26311 14.5453 3.94605L14.73 3.86937L14.9147 3.7927C14.6115 3.0623 14.1929 2.4417 13.6576 1.93423L13.52 2.07938ZM14.73 3.86937L14.5453 3.94605C14.8271 4.62504 14.97 5.39177 14.97 6.24937H15.17H15.37C15.37 5.34698 15.2195 4.52704 14.9147 3.7927L14.73 3.86937ZM15.17 6.24937H14.97C14.97 7.10698 14.8271 7.87371 14.5453 8.5527L14.73 8.62938L14.9147 8.70605C15.2195 7.97171 15.37 7.15178 15.37 6.24937H15.17ZM14.73 8.62938L14.5453 8.5527C14.2617 9.23584 13.8734 9.81232 13.3814 10.2852L13.52 10.4294L13.6586 10.5736C14.1932 10.0598 14.6116 9.43624 14.9147 8.70605L14.73 8.62938ZM13.52 10.4294L13.3823 10.2843C12.8827 10.7583 12.2925 11.1245 11.6094 11.3823L11.68 11.5694L11.7506 11.7565C12.4808 11.4809 13.1173 11.0871 13.6577 10.5745L13.52 10.4294ZM11.68 11.5694L11.6109 11.3817C10.9285 11.6328 10.1854 11.7594 9.38 11.7594V11.9594V12.1594C10.2279 12.1594 11.0182 12.026 11.7491 11.7571L11.68 11.5694ZM9.38 11.9594V11.7594H0.669999V11.9594V12.1594H9.38V11.9594ZM0.669999 11.9594H0.869999L0.869999 10.0294H0.669999H0.469999L0.469999 11.9594H0.669999ZM0.669999 10.0294L0.669999 10.2294H9.37V10.0294V9.82938H0.669999V10.0294ZM9.37 10.0294V10.2294C9.98857 10.2294 10.5602 10.1434 11.0832 9.96911L11.02 9.77937L10.9568 9.58964C10.4798 9.74864 9.95143 9.82938 9.37 9.82938V10.0294ZM11.02 9.77937L11.0855 9.96834C11.6079 9.78725 12.0614 9.52797 12.4429 9.18886L12.31 9.03938L12.1771 8.88989C11.8386 9.19078 11.4321 9.42483 10.9545 9.59041L11.02 9.77937ZM12.31 9.03938L12.4444 9.18749C12.8261 8.84114 13.1255 8.42124 13.3429 7.93036L13.16 7.84937L12.9771 7.76839C12.7812 8.21084 12.5139 8.58428 12.1756 8.89126L12.31 9.03938ZM13.16 7.84937L13.3442 7.92722C13.5561 7.42574 13.66 6.86535 13.66 6.24937H13.46H13.26C13.26 6.82006 13.1639 7.32634 12.9758 7.77153L13.16 7.84937Z" fill="black" mask="url(#path-1-outside-1_1369_1763)"/>
</svg>
