<svg width="30" height="30" viewBox="0 0 30 30" fill="none" xmlns="http://www.w3.org/2000/svg">
<path d="M27.5 7.38359C26.563 7.79281 25.5706 8.06113 24.555 8.17984C25.621 7.55388 26.4226 6.56122 26.81 5.38734C25.8 5.97525 24.6984 6.38934 23.5513 6.61234C23.0682 6.10635 22.4871 5.70407 21.8434 5.43006C21.1998 5.15605 20.5071 5.01605 19.8075 5.01859C16.975 5.01859 14.6788 7.28109 14.6788 10.0686C14.6788 10.4636 14.7238 10.8498 14.8112 11.2186C12.7795 11.122 10.7901 10.6028 8.97021 9.69439C7.15028 8.78593 5.5397 7.50806 4.24125 5.94234C3.78603 6.71034 3.54677 7.58706 3.54875 8.47984C3.54962 9.3148 3.75854 10.1364 4.15661 10.8703C4.55469 11.6043 5.12938 12.2275 5.82875 12.6836C5.0156 12.6573 4.22003 12.4402 3.50625 12.0498V12.1123C3.50625 14.5598 5.275 16.6011 7.61875 17.0661C7.17826 17.183 6.72448 17.2422 6.26875 17.2423C5.9375 17.2423 5.61625 17.2111 5.3025 17.1486C5.6376 18.1585 6.27888 19.039 7.13727 19.6678C7.99566 20.2965 9.02855 20.6424 10.0925 20.6573C8.26758 22.063 6.02727 22.8224 3.72375 22.8161C3.30875 22.8161 2.90125 22.7911 2.5 22.7461C4.85157 24.2345 7.57824 25.0227 10.3612 25.0186C19.795 25.0186 24.9525 17.3223 24.9525 10.6486L24.935 9.99484C25.9411 9.28693 26.8102 8.40215 27.5 7.38359Z" fill="black"/>
</svg>
