<svg width="30" height="30" viewBox="0 0 30 30" fill="none" xmlns="http://www.w3.org/2000/svg">
<path d="M22.265 6.27127H7.68125C4.81875 6.27127 2.5 8.56502 2.5 11.395V18.605C2.5 21.435 4.82 23.73 7.68125 23.73H22.265C25.1275 23.73 27.4463 21.435 27.4463 18.605V11.395C27.4463 8.56502 25.1263 6.27002 22.265 6.27002V6.27127ZM18.7612 15.35L11.94 18.5688C11.8984 18.5888 11.8524 18.598 11.8063 18.5955C11.7602 18.5929 11.7155 18.5788 11.6763 18.5543C11.6371 18.5299 11.6048 18.4959 11.5823 18.4556C11.5597 18.4153 11.5478 18.3699 11.5475 18.3238V11.6875C11.5483 11.6411 11.5609 11.5957 11.584 11.5554C11.6072 11.5152 11.6401 11.4814 11.6798 11.4574C11.7195 11.4333 11.7646 11.4196 11.811 11.4177C11.8573 11.4158 11.9034 11.4256 11.945 11.4463L18.7675 14.865C18.8129 14.8877 18.8511 14.9227 18.8775 14.9661C18.9039 15.0094 18.9176 15.0593 18.917 15.1101C18.9163 15.1609 18.9014 15.2104 18.8738 15.2531C18.8463 15.2958 18.8073 15.3298 18.7612 15.3513V15.35Z" fill="black"/>
</svg>
